<svg width="14" height="18" viewBox="0 0 14 18" fill="none" xmlns="http://www.w3.org/2000/svg">
<path d="M6.34483 17.157C1.52049 10.1631 0.625 9.44535 0.625 6.875C0.625 3.35417 3.47917 0.5 7 0.5C10.5208 0.5 13.375 3.35417 13.375 6.875C13.375 9.44535 12.4795 10.1631 7.65516 17.157C7.33857 17.6143 6.66139 17.6143 6.34483 17.157ZM7 9.53125C8.46701 9.53125 9.65625 8.34201 9.65625 6.875C9.65625 5.40799 8.46701 4.21875 7 4.21875C5.53299 4.21875 4.34375 5.40799 4.34375 6.875C4.34375 8.34201 5.53299 9.53125 7 9.53125Z" fill="#F5F5F5"/>
</svg>
