<svg width="16" height="16" viewBox="0 0 16 16" fill="none" xmlns="http://www.w3.org/2000/svg">
<path fill-rule="evenodd" clip-rule="evenodd" d="M2.61621 7.32823C2.61621 4.72585 4.72585 2.61621 7.32823 2.61621C9.93061 2.61621 12.0403 4.72585 12.0403 7.32823C12.0403 8.58292 11.5499 9.72307 10.7503 10.5675C10.7165 10.5936 10.6839 10.6221 10.6529 10.6532C10.6219 10.6842 10.5933 10.7167 10.5672 10.7505C9.72285 11.55 8.5828 12.0403 7.32823 12.0403C4.72585 12.0403 2.61621 9.93061 2.61621 7.32823ZM11.3144 12.7289C10.1997 13.553 8.82088 14.0403 7.32823 14.0403C3.62129 14.0403 0.616211 11.0352 0.616211 7.32823C0.616211 3.62129 3.62129 0.616211 7.32823 0.616211C11.0352 0.616211 14.0403 3.62129 14.0403 7.32823C14.0403 8.82103 13.5529 10.2 12.7287 11.3147L15.0911 13.6772C15.4816 14.0677 15.4816 14.7009 15.0911 15.0914C14.7006 15.4819 14.0674 15.4819 13.6769 15.0914L11.3144 12.7289Z" fill="#F5F5F5"/>
</svg>
