<svg width="24" height="26" viewBox="0 0 24 26" fill="none" xmlns="http://www.w3.org/2000/svg">
<path d="M4.34564 6.87319C4.34564 6.40458 4.69387 6.0173 5.14567 5.956L5.27128 5.94756L19.8347 5.94769L16.3698 2.49663C16.0074 2.13599 16.0061 1.54991 16.3667 1.18759C16.6946 0.858207 17.2088 0.827144 17.5718 1.09518L17.6758 1.18456L22.7318 6.21729C22.7616 6.24763 22.7887 6.27851 22.8136 6.31109L22.7318 6.21729C22.7774 6.2627 22.8173 6.31168 22.8515 6.36333C22.8627 6.38135 22.8742 6.40008 22.885 6.41923C22.8957 6.43701 22.9051 6.45509 22.9139 6.4734C22.9219 6.49147 22.93 6.50981 22.9374 6.52844C22.9476 6.55212 22.9561 6.5764 22.9637 6.60094C22.9675 6.61541 22.9717 6.63022 22.9755 6.64518C22.9828 6.67184 22.9883 6.69863 22.9927 6.72557C22.9941 6.73818 22.9959 6.7514 22.9975 6.76472C23.0017 6.79513 23.0037 6.82527 23.0043 6.85544C23.0037 6.8614 23.0038 6.86729 23.0038 6.87319L23.0043 6.89122C23.0037 6.92139 23.0017 6.95153 22.9982 6.98153L23.0038 6.87319C23.0038 6.92362 22.9997 6.9731 22.992 7.02134C22.9883 7.04803 22.9828 7.07482 22.9761 7.10137C22.9719 7.1154 22.968 7.12947 22.9637 7.1434C22.9563 7.16993 22.947 7.1963 22.9364 7.22228C22.9299 7.23651 22.9239 7.25022 22.9176 7.26376C22.9085 7.28508 22.8975 7.30646 22.8857 7.32747C22.8741 7.34641 22.8627 7.36509 22.8506 7.38332C22.8421 7.39757 22.8322 7.4116 22.822 7.42541L22.8136 7.4353C22.7887 7.46788 22.7616 7.49875 22.7327 7.52772L22.7318 7.52937L17.6758 12.5621C17.3135 12.9227 16.7274 12.9214 16.3667 12.5591C16.0389 12.2297 16.0102 11.7154 16.2799 11.3536L16.3698 11.25L19.8372 7.79897L5.27128 7.79883C4.76006 7.79883 4.34564 7.38441 4.34564 6.87319ZM0.996607 19.1267L0.996093 19.1087C0.996673 19.0785 0.998718 19.0484 1.00223 19.0184L0.996607 19.1267C0.996607 19.0763 1.00064 19.0268 1.0084 18.9786C1.01201 18.9522 1.01746 18.9257 1.02407 18.8995C1.0286 18.884 1.03302 18.8683 1.03783 18.8527C1.04468 18.8284 1.05301 18.8049 1.06232 18.7817C1.06979 18.7649 1.07722 18.7479 1.08514 18.7312C1.09373 18.7113 1.10385 18.6917 1.11471 18.6725C1.12486 18.656 1.13476 18.6396 1.14514 18.6236C1.15492 18.6072 1.16638 18.5907 1.17842 18.5745L1.26855 18.4706L6.32459 13.4378C6.68691 13.0772 7.27299 13.0785 7.63364 13.4408C7.9615 13.7702 7.99019 14.2845 7.72048 14.6463L7.63062 14.7499L4.16178 18.2019L18.7291 18.2011C19.2403 18.2011 19.6547 18.6155 19.6547 19.1267C19.6547 19.5953 19.3065 19.9826 18.8547 20.0439L18.7291 20.0524L4.16301 20.0532L7.63062 23.5033C7.96 23.8311 7.99106 24.3453 7.72303 24.7083L7.63364 24.8123C7.30578 25.1417 6.79161 25.1728 6.42862 24.9047L6.32459 24.8154L1.26855 19.7826L1.21857 19.7281C1.20762 19.7153 1.19701 19.7022 1.18676 19.6888L1.26855 19.7826C1.22293 19.7372 1.18304 19.6882 1.14887 19.6366C1.13764 19.6186 1.12618 19.5998 1.11538 19.5807C1.10467 19.5629 1.09526 19.5448 1.08649 19.5265C1.07849 19.5084 1.07042 19.4901 1.06294 19.4715C1.05281 19.4478 1.04424 19.4235 1.03671 19.399C1.0327 19.3841 1.02843 19.3688 1.02455 19.3533C1.01772 19.3285 1.01249 19.3033 1.00832 19.278C1.00642 19.2628 1.00435 19.2479 1.00263 19.2329C0.998709 19.2044 0.996721 19.1751 0.996118 19.1457C0.99667 19.1392 0.996607 19.133 0.996607 19.1267Z" fill="#1CC8EE"/>
</svg>
