<svg width="14" height="16" viewBox="0 0 14 16" fill="none" xmlns="http://www.w3.org/2000/svg">
<path fill-rule="evenodd" clip-rule="evenodd" d="M7.1582 15.9446C7.1582 15.9446 13.6582 11.6112 13.6582 6.55567C13.6582 4.83176 12.9734 3.17846 11.7544 1.95947C10.5354 0.740484 8.88211 0.0556641 7.1582 0.0556641C5.4343 0.0556641 3.781 0.740484 2.56201 1.95947C1.34302 3.17846 0.658203 4.83176 0.658203 6.55567C0.658203 11.6112 7.1582 15.9446 7.1582 15.9446ZM9.32558 6.55582C9.32558 7.75244 8.35553 8.72249 7.15892 8.72249C5.9623 8.72249 4.99225 7.75244 4.99225 6.55582C4.99225 5.3592 5.9623 4.38915 7.15892 4.38915C8.35553 4.38915 9.32558 5.3592 9.32558 6.55582Z" fill="#F5F5F5"/>
</svg>
