<svg width="16" height="18" viewBox="0 0 16 18" fill="none" xmlns="http://www.w3.org/2000/svg">
<path d="M12.1393 0.505461L1.28672 6.77107C-0.428906 7.76166 -0.428906 10.2381 1.28672 11.2287L12.1393 17.4943C13.8549 18.4849 16 17.2472 16 15.2661V2.7337C16 0.75253 13.8549 -0.485122 12.1393 0.505461ZM12.4083 10.4124C12.5988 10.5833 12.7177 10.7727 12.7523 10.9585C12.7881 11.1629 12.7165 11.3442 12.5318 11.5162C12.3667 11.6582 12.2016 11.7182 12.0042 11.7044C11.8021 11.6928 11.5828 11.5658 11.3322 11.3164L9.99877 9.9922L8.57755 11.4065C8.39629 11.5981 8.22196 11.7044 8.03261 11.7378C7.99682 11.7436 7.96219 11.7471 7.92871 11.7471C7.76015 11.7471 7.61006 11.6697 7.47267 11.5127C7.33528 11.3522 7.2764 11.186 7.28795 10.9886C7.29949 10.7807 7.43457 10.5556 7.68972 10.3212L9.00819 9.01086L7.64931 7.66121C7.4542 7.47649 7.33182 7.27791 7.29949 7.08972C7.27294 6.86575 7.33413 6.69372 7.48999 6.53786C7.63199 6.39585 7.77862 6.32774 7.94025 6.32774C8.1319 6.32774 8.31778 6.40393 8.52675 6.56903L8.54176 6.58173L9.99877 8.02258L11.4304 6.60713C11.6301 6.4074 11.8287 6.28964 12.0203 6.25731C12.227 6.23076 12.4025 6.29656 12.5618 6.45589C12.6992 6.58173 12.7719 6.73298 12.7719 6.89807C12.7604 7.11743 12.683 7.30216 12.5272 7.48803L12.5156 7.50073L10.9894 9.00162L12.4083 10.4124Z" fill="#1CC8EE"/>
</svg>
