<svg width="20" height="18" viewBox="0 0 20 18" fill="none" xmlns="http://www.w3.org/2000/svg">
<path d="M17.4974 2.37791C17.0607 1.94092 16.5421 1.59426 15.9713 1.35775C15.4005 1.12124 14.7887 0.999512 14.1708 0.999512C13.553 0.999512 12.9412 1.12124 12.3704 1.35775C11.7996 1.59426 11.281 1.94092 10.8442 2.37791L9.93769 3.28439L9.03121 2.37791C8.14893 1.49563 6.9523 0.999969 5.70457 0.999969C4.45684 0.999969 3.26022 1.49563 2.37794 2.37791C1.49566 3.26018 1 4.45681 1 5.70454C1 6.95227 1.49566 8.1489 2.37794 9.03118L3.28442 9.93766L9.93769 16.5909L16.591 9.93766L17.4974 9.03118C17.9344 8.59439 18.2811 8.07579 18.5176 7.50499C18.7541 6.9342 18.8758 6.32239 18.8758 5.70454C18.8758 5.08669 18.7541 4.47489 18.5176 3.90409C18.2811 3.3333 17.9344 2.81469 17.4974 2.37791V2.37791Z" stroke="#F5F5F5" stroke-width="1.5" stroke-linecap="round" stroke-linejoin="round"/>
</svg>
