<svg width="20" height="18" viewBox="0 0 20 18" fill="none" xmlns="http://www.w3.org/2000/svg">
<path d="M17.7229 2.57362C17.2855 2.13604 16.7662 1.78891 16.1946 1.55208C15.6231 1.31526 15.0104 1.19336 14.3917 1.19336C13.773 1.19336 13.1604 1.31526 12.5889 1.55208C12.0173 1.78891 11.498 2.13604 11.0606 2.57362L10.1529 3.48133L9.24518 2.57362C8.36171 1.69015 7.16347 1.19382 5.91405 1.19382C4.66464 1.19382 3.46639 1.69015 2.58292 2.57362C1.69945 3.45709 1.20313 4.65533 1.20312 5.90475C1.20312 7.15416 1.69945 8.35241 2.58292 9.23588L3.49064 10.1436L10.1529 16.8059L16.8152 10.1436L17.7229 9.23588C18.1604 8.7985 18.5076 8.2792 18.7444 7.70763C18.9812 7.13606 19.1031 6.52344 19.1031 5.90475C19.1031 5.28606 18.9812 4.67343 18.7444 4.10186C18.5076 3.5303 18.1604 3.01099 17.7229 2.57362V2.57362Z" stroke="#414242" stroke-width="1.5" stroke-linecap="round" stroke-linejoin="round"/>
</svg>
