<svg width="20" height="18" viewBox="0 0 20 18" fill="none" xmlns="http://www.w3.org/2000/svg">
<path d="M17.7229 2.57411C17.2855 2.13652 16.7662 1.7894 16.1946 1.55257C15.6231 1.31574 15.0104 1.19385 14.3917 1.19385C13.773 1.19385 13.1604 1.31574 12.5889 1.55257C12.0173 1.7894 11.498 2.13652 11.0606 2.57411L10.1529 3.48182L9.24518 2.57411C8.36171 1.69063 7.16347 1.19431 5.91405 1.19431C4.66464 1.19431 3.46639 1.69063 2.58292 2.57411C1.69945 3.45758 1.20313 4.65582 1.20312 5.90524C1.20312 7.15465 1.69945 8.3529 2.58292 9.23637L3.49064 10.1441L10.1529 16.8063L16.8152 10.1441L17.7229 9.23637C18.1604 8.79899 18.5076 8.27969 18.7444 7.70812C18.9812 7.13655 19.1031 6.52392 19.1031 5.90524C19.1031 5.28655 18.9812 4.67392 18.7444 4.10235C18.5076 3.53079 18.1604 3.01148 17.7229 2.57411Z" fill="#1CC8EE" stroke="#1CC8EE" stroke-width="1.5" stroke-linecap="round" stroke-linejoin="round"/>
</svg>
