<svg width="24" height="22" viewBox="0 0 24 22" fill="none" xmlns="http://www.w3.org/2000/svg">
<path d="M12 0.777344C9.22123 0.777344 6.96875 3.02983 6.96875 5.80859C6.96875 8.05509 10.257 12.1496 11.5168 13.6358C11.772 13.9369 12.2284 13.9369 12.4832 13.6358C13.743 12.1496 17.0312 8.05509 17.0312 5.80859C17.0312 3.02983 14.7788 0.777344 12 0.777344ZM12 7.48568C11.0736 7.48568 10.3229 6.73498 10.3229 5.80859C10.3229 4.8822 11.0736 4.13151 12 4.13151C12.9264 4.13151 13.6771 4.8822 13.6771 5.80859C13.6771 6.73498 12.9264 7.48568 12 7.48568ZM1.3034 9.40035C1.06629 9.49519 0.863021 9.65889 0.719822 9.87034C0.576622 10.0818 0.500057 10.3313 0.5 10.5867L0.5 20.5821C0.5 21.0341 0.956406 21.3432 1.37608 21.1755L6.88889 18.6662V9.35922C6.5359 8.72113 6.2472 8.09981 6.04036 7.50564L1.3034 9.40035ZM12 15.1392C11.4382 15.1392 10.9067 14.8924 10.5421 14.4619C9.7571 13.5356 8.92215 12.4806 8.16667 11.3985V18.6658L15.8333 21.2214V11.3989C15.0778 12.4806 14.2433 13.536 13.4579 14.4623C13.0933 14.8924 12.5618 15.1392 12 15.1392ZM22.6239 7.21255L17.1111 9.72179V21.2218L22.6966 18.9877C22.9337 18.8929 23.137 18.7292 23.2802 18.5177C23.4235 18.3063 23.5 18.0567 23.5 17.8013V7.80592C23.5 7.35391 23.0436 7.04484 22.6239 7.21255Z" fill="#F5F5F5"/>
</svg>
